<?xml version="1.0" encoding="utf-8" ?>
<svg baseProfile="tiny" height="100%" version="1.2" viewBox="0,0,400,400" width="100%" xmlns="http://www.w3.org/2000/svg" xmlns:ev="http://www.w3.org/2001/xml-events" xmlns:xlink="http://www.w3.org/1999/xlink"><defs /><rect fill="rgb(250,255,251)" height="100%" width="100%" x="0" y="0" /><text fill="black" font-size="20px" font-weight="bold" x="35" y="35">1</text><rect fill="red" height="40" stroke="rgb(100%,100%,0%)" width="40" x="35" y="35" /><text fill="black" font-size="20px" font-weight="bold" x="35" y="70">2</text><rect fill="red" height="40" stroke="rgb(100%,100%,0%)" width="40" x="35" y="70" /><text fill="black" font-size="20px" font-weight="bold" x="35" y="105">3</text><rect fill="red" height="40" stroke="rgb(100%,100%,0%)" width="40" x="35" y="105" /><text fill="black" font-size="20px" font-weight="bold" x="35" y="140">4</text><rect fill="red" height="40" stroke="rgb(100%,100%,0%)" width="40" x="35" y="140" /><text fill="black" font-size="20px" font-weight="bold" x="35" y="175">5</text><rect fill="red" height="40" stroke="rgb(100%,100%,0%)" width="40" x="35" y="175" /><text fill="black" font-size="20px" font-weight="bold" x="35" y="210">6</text><rect fill="red" height="40" stroke="rgb(100%,100%,0%)" width="40" x="35" y="210" /><text fill="black" font-size="20px" font-weight="bold" x="35" y="245">7</text><rect fill="red" height="40" stroke="rgb(100%,100%,0%)" width="40" x="35" y="245" /><text fill="black" font-size="20px" font-weight="bold" x="35" y="280">8</text><rect fill="red" height="40" stroke="rgb(100%,100%,0%)" width="40" x="35" y="280" /><text fill="black" font-size="20px" font-weight="bold" x="35" y="315">9</text><rect fill="red" height="40" stroke="rgb(100%,100%,0%)" width="40" x="35" y="315" /><text fill="black" font-size="20px" font-weight="bold" x="35" y="350">10</text><rect fill="red" height="40" stroke="rgb(100%,100%,0%)" width="40" x="35" y="350" /><text fill="black" font-size="20px" font-weight="bold" x="70" y="35">2</text><rect fill="red" height="40" stroke="rgb(100%,100%,0%)" width="40" x="70" y="35" /><text fill="black" font-size="20px" font-weight="bold" x="70" y="70">4</text><rect fill="red" height="40" stroke="rgb(100%,100%,0%)" width="40" x="70" y="70" /><text fill="black" font-size="20px" font-weight="bold" x="70" y="105">6</text><rect fill="red" height="40" stroke="rgb(100%,100%,0%)" width="40" x="70" y="105" /><text fill="black" font-size="20px" font-weight="bold" x="70" y="140">8</text><rect fill="red" height="40" stroke="rgb(100%,100%,0%)" width="40" x="70" y="140" /><text fill="black" font-size="20px" font-weight="bold" x="70" y="175">10</text><rect fill="red" height="40" stroke="rgb(100%,100%,0%)" width="40" x="70" y="175" /><text fill="black" font-size="20px" font-weight="bold" x="70" y="210">12</text><rect fill="red" height="40" stroke="rgb(100%,100%,0%)" width="40" x="70" y="210" /><text fill="black" font-size="20px" font-weight="bold" x="70" y="245">14</text><rect fill="red" height="40" stroke="rgb(100%,100%,0%)" width="40" x="70" y="245" /><text fill="black" font-size="20px" font-weight="bold" x="70" y="280">16</text><rect fill="red" height="40" stroke="rgb(100%,100%,0%)" width="40" x="70" y="280" /><text fill="black" font-size="20px" font-weight="bold" x="70" y="315">18</text><rect fill="red" height="40" stroke="rgb(100%,100%,0%)" width="40" x="70" y="315" /><text fill="black" font-size="20px" font-weight="bold" x="70" y="350">20</text><rect fill="red" height="40" stroke="rgb(100%,100%,0%)" width="40" x="70" y="350" /><text fill="black" font-size="20px" font-weight="bold" x="105" y="35">3</text><rect fill="red" height="40" stroke="rgb(100%,100%,0%)" width="40" x="105" y="35" /><text fill="black" font-size="20px" font-weight="bold" x="105" y="70">6</text><rect fill="red" height="40" stroke="rgb(100%,100%,0%)" width="40" x="105" y="70" /><text fill="black" font-size="20px" font-weight="bold" x="105" y="105">9</text><rect fill="red" height="40" stroke="rgb(100%,100%,0%)" width="40" x="105" y="105" /><text fill="black" font-size="20px" font-weight="bold" x="105" y="140">12</text><rect fill="red" height="40" stroke="rgb(100%,100%,0%)" width="40" x="105" y="140" /><text fill="black" font-size="20px" font-weight="bold" x="105" y="175">15</text><rect fill="red" height="40" stroke="rgb(100%,100%,0%)" width="40" x="105" y="175" /><text fill="black" font-size="20px" font-weight="bold" x="105" y="210">18</text><rect fill="red" height="40" stroke="rgb(100%,100%,0%)" width="40" x="105" y="210" /><text fill="black" font-size="20px" font-weight="bold" x="105" y="245">21</text><rect fill="red" height="40" stroke="rgb(100%,100%,0%)" width="40" x="105" y="245" /><text fill="black" font-size="20px" font-weight="bold" x="105" y="280">24</text><rect fill="red" height="40" stroke="rgb(100%,100%,0%)" width="40" x="105" y="280" /><text fill="black" font-size="20px" font-weight="bold" x="105" y="315">27</text><rect fill="red" height="40" stroke="rgb(100%,100%,0%)" width="40" x="105" y="315" /><text fill="black" font-size="20px" font-weight="bold" x="105" y="350">30</text><rect fill="red" height="40" stroke="rgb(100%,100%,0%)" width="40" x="105" y="350" /><text fill="black" font-size="20px" font-weight="bold" x="140" y="35">4</text><rect fill="red" height="40" stroke="rgb(100%,100%,0%)" width="40" x="140" y="35" /><text fill="black" font-size="20px" font-weight="bold" x="140" y="70">8</text><rect fill="red" height="40" stroke="rgb(100%,100%,0%)" width="40" x="140" y="70" /><text fill="black" font-size="20px" font-weight="bold" x="140" y="105">12</text><rect fill="red" height="40" stroke="rgb(100%,100%,0%)" width="40" x="140" y="105" /><text fill="black" font-size="20px" font-weight="bold" x="140" y="140">16</text><rect fill="red" height="40" stroke="rgb(100%,100%,0%)" width="40" x="140" y="140" /><text fill="black" font-size="20px" font-weight="bold" x="140" y="175">20</text><rect fill="red" height="40" stroke="rgb(100%,100%,0%)" width="40" x="140" y="175" /><text fill="black" font-size="20px" font-weight="bold" x="140" y="210">24</text><rect fill="red" height="40" stroke="rgb(100%,100%,0%)" width="40" x="140" y="210" /><text fill="black" font-size="20px" font-weight="bold" x="140" y="245">28</text><rect fill="red" height="40" stroke="rgb(100%,100%,0%)" width="40" x="140" y="245" /><text fill="black" font-size="20px" font-weight="bold" x="140" y="280">32</text><rect fill="red" height="40" stroke="rgb(100%,100%,0%)" width="40" x="140" y="280" /><text fill="black" font-size="20px" font-weight="bold" x="140" y="315">36</text><rect fill="red" height="40" stroke="rgb(100%,100%,0%)" width="40" x="140" y="315" /><text fill="black" font-size="20px" font-weight="bold" x="140" y="350">40</text><rect fill="red" height="40" stroke="rgb(100%,100%,0%)" width="40" x="140" y="350" /><text fill="black" font-size="20px" font-weight="bold" x="175" y="35">5</text><rect fill="red" height="40" stroke="rgb(100%,100%,0%)" width="40" x="175" y="35" /><text fill="black" font-size="20px" font-weight="bold" x="175" y="70">10</text><rect fill="red" height="40" stroke="rgb(100%,100%,0%)" width="40" x="175" y="70" /><text fill="black" font-size="20px" font-weight="bold" x="175" y="105">15</text><rect fill="red" height="40" stroke="rgb(100%,100%,0%)" width="40" x="175" y="105" /><text fill="black" font-size="20px" font-weight="bold" x="175" y="140">20</text><rect fill="red" height="40" stroke="rgb(100%,100%,0%)" width="40" x="175" y="140" /><text fill="black" font-size="20px" font-weight="bold" x="175" y="175">25</text><rect fill="red" height="40" stroke="rgb(100%,100%,0%)" width="40" x="175" y="175" /><text fill="black" font-size="20px" font-weight="bold" x="175" y="210">30</text><rect fill="red" height="40" stroke="rgb(100%,100%,0%)" width="40" x="175" y="210" /><text fill="black" font-size="20px" font-weight="bold" x="175" y="245">35</text><rect fill="red" height="40" stroke="rgb(100%,100%,0%)" width="40" x="175" y="245" /><text fill="black" font-size="20px" font-weight="bold" x="175" y="280">40</text><rect fill="red" height="40" stroke="rgb(100%,100%,0%)" width="40" x="175" y="280" /><text fill="black" font-size="20px" font-weight="bold" x="175" y="315">45</text><rect fill="red" height="40" stroke="rgb(100%,100%,0%)" width="40" x="175" y="315" /><text fill="black" font-size="20px" font-weight="bold" x="175" y="350">50</text><rect fill="red" height="40" stroke="rgb(100%,100%,0%)" width="40" x="175" y="350" /><text fill="black" font-size="20px" font-weight="bold" x="210" y="35">6</text><rect fill="red" height="40" stroke="rgb(100%,100%,0%)" width="40" x="210" y="35" /><text fill="black" font-size="20px" font-weight="bold" x="210" y="70">12</text><rect fill="red" height="40" stroke="rgb(100%,100%,0%)" width="40" x="210" y="70" /><text fill="black" font-size="20px" font-weight="bold" x="210" y="105">18</text><rect fill="red" height="40" stroke="rgb(100%,100%,0%)" width="40" x="210" y="105" /><text fill="black" font-size="20px" font-weight="bold" x="210" y="140">24</text><rect fill="red" height="40" stroke="rgb(100%,100%,0%)" width="40" x="210" y="140" /><text fill="black" font-size="20px" font-weight="bold" x="210" y="175">30</text><rect fill="red" height="40" stroke="rgb(100%,100%,0%)" width="40" x="210" y="175" /><text fill="black" font-size="20px" font-weight="bold" x="210" y="210">36</text><rect fill="red" height="40" stroke="rgb(100%,100%,0%)" width="40" x="210" y="210" /><text fill="black" font-size="20px" font-weight="bold" x="210" y="245">42</text><rect fill="red" height="40" stroke="rgb(100%,100%,0%)" width="40" x="210" y="245" /><text fill="black" font-size="20px" font-weight="bold" x="210" y="280">48</text><rect fill="red" height="40" stroke="rgb(100%,100%,0%)" width="40" x="210" y="280" /><text fill="black" font-size="20px" font-weight="bold" x="210" y="315">54</text><rect fill="red" height="40" stroke="rgb(100%,100%,0%)" width="40" x="210" y="315" /><text fill="black" font-size="20px" font-weight="bold" x="210" y="350">60</text><rect fill="red" height="40" stroke="rgb(100%,100%,0%)" width="40" x="210" y="350" /><text fill="black" font-size="20px" font-weight="bold" x="245" y="35">7</text><rect fill="red" height="40" stroke="rgb(100%,100%,0%)" width="40" x="245" y="35" /><text fill="black" font-size="20px" font-weight="bold" x="245" y="70">14</text><rect fill="red" height="40" stroke="rgb(100%,100%,0%)" width="40" x="245" y="70" /><text fill="black" font-size="20px" font-weight="bold" x="245" y="105">21</text><rect fill="red" height="40" stroke="rgb(100%,100%,0%)" width="40" x="245" y="105" /><text fill="black" font-size="20px" font-weight="bold" x="245" y="140">28</text><rect fill="red" height="40" stroke="rgb(100%,100%,0%)" width="40" x="245" y="140" /><text fill="black" font-size="20px" font-weight="bold" x="245" y="175">35</text><rect fill="red" height="40" stroke="rgb(100%,100%,0%)" width="40" x="245" y="175" /><text fill="black" font-size="20px" font-weight="bold" x="245" y="210">42</text><rect fill="red" height="40" stroke="rgb(100%,100%,0%)" width="40" x="245" y="210" /><text fill="black" font-size="20px" font-weight="bold" x="245" y="245">49</text><rect fill="red" height="40" stroke="rgb(100%,100%,0%)" width="40" x="245" y="245" /><text fill="black" font-size="20px" font-weight="bold" x="245" y="280">56</text><rect fill="red" height="40" stroke="rgb(100%,100%,0%)" width="40" x="245" y="280" /><text fill="black" font-size="20px" font-weight="bold" x="245" y="315">63</text><rect fill="red" height="40" stroke="rgb(100%,100%,0%)" width="40" x="245" y="315" /><text fill="black" font-size="20px" font-weight="bold" x="245" y="350">70</text><rect fill="red" height="40" stroke="rgb(100%,100%,0%)" width="40" x="245" y="350" /><text fill="black" font-size="20px" font-weight="bold" x="280" y="35">8</text><rect fill="red" height="40" stroke="rgb(100%,100%,0%)" width="40" x="280" y="35" /><text fill="black" font-size="20px" font-weight="bold" x="280" y="70">16</text><rect fill="red" height="40" stroke="rgb(100%,100%,0%)" width="40" x="280" y="70" /><text fill="black" font-size="20px" font-weight="bold" x="280" y="105">24</text><rect fill="red" height="40" stroke="rgb(100%,100%,0%)" width="40" x="280" y="105" /><text fill="black" font-size="20px" font-weight="bold" x="280" y="140">32</text><rect fill="red" height="40" stroke="rgb(100%,100%,0%)" width="40" x="280" y="140" /><text fill="black" font-size="20px" font-weight="bold" x="280" y="175">40</text><rect fill="red" height="40" stroke="rgb(100%,100%,0%)" width="40" x="280" y="175" /><text fill="black" font-size="20px" font-weight="bold" x="280" y="210">48</text><rect fill="red" height="40" stroke="rgb(100%,100%,0%)" width="40" x="280" y="210" /><text fill="black" font-size="20px" font-weight="bold" x="280" y="245">56</text><rect fill="red" height="40" stroke="rgb(100%,100%,0%)" width="40" x="280" y="245" /><text fill="black" font-size="20px" font-weight="bold" x="280" y="280">64</text><rect fill="red" height="40" stroke="rgb(100%,100%,0%)" width="40" x="280" y="280" /><text fill="black" font-size="20px" font-weight="bold" x="280" y="315">72</text><rect fill="red" height="40" stroke="rgb(100%,100%,0%)" width="40" x="280" y="315" /><text fill="black" font-size="20px" font-weight="bold" x="280" y="350">80</text><rect fill="red" height="40" stroke="rgb(100%,100%,0%)" width="40" x="280" y="350" /><text fill="black" font-size="20px" font-weight="bold" x="315" y="35">9</text><rect fill="red" height="40" stroke="rgb(100%,100%,0%)" width="40" x="315" y="35" /><text fill="black" font-size="20px" font-weight="bold" x="315" y="70">18</text><rect fill="red" height="40" stroke="rgb(100%,100%,0%)" width="40" x="315" y="70" /><text fill="black" font-size="20px" font-weight="bold" x="315" y="105">27</text><rect fill="red" height="40" stroke="rgb(100%,100%,0%)" width="40" x="315" y="105" /><text fill="black" font-size="20px" font-weight="bold" x="315" y="140">36</text><rect fill="red" height="40" stroke="rgb(100%,100%,0%)" width="40" x="315" y="140" /><text fill="black" font-size="20px" font-weight="bold" x="315" y="175">45</text><rect fill="red" height="40" stroke="rgb(100%,100%,0%)" width="40" x="315" y="175" /><text fill="black" font-size="20px" font-weight="bold" x="315" y="210">54</text><rect fill="red" height="40" stroke="rgb(100%,100%,0%)" width="40" x="315" y="210" /><text fill="black" font-size="20px" font-weight="bold" x="315" y="245">63</text><rect fill="red" height="40" stroke="rgb(100%,100%,0%)" width="40" x="315" y="245" /><text fill="black" font-size="20px" font-weight="bold" x="315" y="280">72</text><rect fill="red" height="40" stroke="rgb(100%,100%,0%)" width="40" x="315" y="280" /><text fill="black" font-size="20px" font-weight="bold" x="315" y="315">81</text><rect fill="red" height="40" stroke="rgb(100%,100%,0%)" width="40" x="315" y="315" /><text fill="black" font-size="20px" font-weight="bold" x="315" y="350">90</text><rect fill="red" height="40" stroke="rgb(100%,100%,0%)" width="40" x="315" y="350" /><text fill="black" font-size="20px" font-weight="bold" x="350" y="35">10</text><rect fill="red" height="40" stroke="rgb(100%,100%,0%)" width="40" x="350" y="35" /><text fill="black" font-size="20px" font-weight="bold" x="350" y="70">20</text><rect fill="red" height="40" stroke="rgb(100%,100%,0%)" width="40" x="350" y="70" /><text fill="black" font-size="20px" font-weight="bold" x="350" y="105">30</text><rect fill="red" height="40" stroke="rgb(100%,100%,0%)" width="40" x="350" y="105" /><text fill="black" font-size="20px" font-weight="bold" x="350" y="140">40</text><rect fill="red" height="40" stroke="rgb(100%,100%,0%)" width="40" x="350" y="140" /><text fill="black" font-size="20px" font-weight="bold" x="350" y="175">50</text><rect fill="red" height="40" stroke="rgb(100%,100%,0%)" width="40" x="350" y="175" /><text fill="black" font-size="20px" font-weight="bold" x="350" y="210">60</text><rect fill="red" height="40" stroke="rgb(100%,100%,0%)" width="40" x="350" y="210" /><text fill="black" font-size="20px" font-weight="bold" x="350" y="245">70</text><rect fill="red" height="40" stroke="rgb(100%,100%,0%)" width="40" x="350" y="245" /><text fill="black" font-size="20px" font-weight="bold" x="350" y="280">80</text><rect fill="red" height="40" stroke="rgb(100%,100%,0%)" width="40" x="350" y="280" /><text fill="black" font-size="20px" font-weight="bold" x="350" y="315">90</text><rect fill="red" height="40" stroke="rgb(100%,100%,0%)" width="40" x="350" y="315" /><text fill="black" font-size="20px" font-weight="bold" x="350" y="350">100</text><rect fill="red" height="40" stroke="rgb(100%,100%,0%)" width="40" x="350" y="350" /></svg>